<svg width="258" height="69" viewBox="0 0 258 69" fill="none" xmlns="http://www.w3.org/2000/svg">
<g filter="url(#filter0_d_4071_18)">
<path d="M100.346 42.827V32.5859C100.346 31.4658 101.114 30.8258 102.106 30.8258L104.282 30.5697V28.0095H88.6007V30.5697L90.841 30.8258C91.8011 30.8258 92.6011 31.5298 92.6011 32.4899V35.8503H80.3439V32.5539C80.3439 31.5939 80.984 30.8898 81.9441 30.8898L84.3123 30.5697V28.0095H68.6307V30.5697L70.999 30.8898C71.9591 30.8898 72.5991 31.6259 72.5991 32.618V43.051C72.5991 44.0111 71.9591 44.6512 70.999 44.6512L68.6627 44.9072V47.4674H84.3443V44.9072L81.9441 44.6512C80.92 44.5231 80.4079 44.0111 80.4079 43.051V39.6907H92.5691V42.891C92.5691 43.8511 91.8651 44.5872 90.873 44.5872L88.5687 44.8112V47.4354H104.25V44.7792L102.106 44.6512C100.826 44.5872 100.346 43.7871 100.346 42.827ZM160.032 30.5697L162.208 30.7938C163.168 30.7938 163.904 31.3698 163.904 32.3299V42.5069L153.951 29.2896L153.791 28.9696C153.279 28.3295 152.959 27.9455 151.871 27.9455H138.11V30.5057L140.35 30.8258C141.438 30.8898 142.046 31.4658 142.046 32.4259V42.859C142.046 43.8191 141.566 44.4591 140.446 44.5872L138.11 44.8112V47.4354H150.431V44.7792L148.415 44.5872C147.455 44.5872 146.655 44.0111 146.655 43.051V32.938L156.768 46.3153C157.312 47.0194 157.792 47.4674 158.688 47.4674H168.609V32.3619C168.609 31.4018 169.313 30.7618 170.273 30.7618L172.193 30.5377V27.9775H160.032V30.5377V30.5697ZM121.052 27.2734C111.131 27.1134 105.146 30.8578 105.05 37.6745C105.05 44.6192 111.131 48.2995 121.148 48.1395C131.005 48.2995 136.958 44.6832 137.15 37.9625V37.9305C137.15 30.9538 131.069 27.1134 121.052 27.2734ZM128.189 38.5705C128.189 42.4109 125.468 44.3951 122.3 44.3951H119.804C116.604 44.3951 114.171 42.0589 114.171 38.5705V36.8744C114.171 33.514 116.572 30.9538 120.06 30.9538H122.044C125.564 30.9538 128.221 33.194 128.221 36.8744V38.5705H128.189ZM194.531 28.0095H174.049V30.5697L176.226 30.8258C177.122 30.9218 177.73 31.3698 177.73 32.3299V43.051C177.73 44.0111 177.154 44.5231 176.129 44.6512L173.793 44.7792V47.4674H194.499C200.644 47.4674 206.245 44.3631 206.245 37.7385C206.245 31.3378 200.964 28.0095 194.531 28.0095ZM192.451 43.6911H185.41V31.6899H192.451C194.435 31.6899 196.932 32.3299 196.932 37.7705C196.932 43.211 194.435 43.7551 192.451 43.7551V43.6911Z" fill="#1E1E1E"/>
<path d="M239.72 44.6512C238.696 44.6512 237.928 44.0751 237.416 43.307L228.711 29.9297L228.071 29.0656C227.559 28.2975 227.015 28.0095 226.023 28.0095H211.237V30.5698L214.277 30.9538C215.045 31.0818 215.621 31.2098 215.621 31.9779C215.621 32.2979 215.429 32.682 215.301 32.938L208.741 43.4991C208.229 44.2671 207.781 44.5552 206.661 44.6512L204.42 44.8112V47.4995H216.902V44.7792L215.237 44.6192C214.597 44.6192 213.957 44.2991 213.957 43.6591C213.957 43.4351 214.021 43.243 214.117 43.019L215.141 41.4189H227.239L227.879 42.571C227.879 42.571 228.423 43.147 228.263 43.9791C228.167 44.4912 227.175 44.6192 227.175 44.6192L224.614 44.7792V47.4675H241V44.7472L239.72 44.5872V44.6512ZM217.318 38.0585L220.998 31.9779L224.902 38.0585H217.318ZM20.946 38.2505L21.586 38.7946L31.123 36.3303C30.931 36.2663 30.867 35.7543 31.187 35.6263L31.8271 35.4343L57.7497 28.3935C61.142 27.6895 61.7181 25.8973 62.4221 24.6172L63.8943 21.9609L21.458 36.0103C19.7939 36.6504 20.4979 37.8345 20.946 38.2505ZM24.3383 41.3548L35.6995 39.1146C35.5074 39.0506 35.4434 38.5386 35.7635 38.4106C36.0835 38.3145 53.6213 34.9862 53.6213 34.9862C56.3415 34.4742 57.0456 33.5781 57.5577 32.874L59.7979 29.6737L22.0981 39.2746L24.3383 41.3548ZM27.5386 44.2671L41.204 42.475C40.884 42.3469 40.948 41.8989 41.268 41.7709C41.5881 41.6429 49.2688 40.4908 49.2688 40.4908C50.869 40.1707 51.6371 39.7547 52.5972 38.7946C53.6213 37.7705 54.9974 36.2343 54.9974 36.2343L24.8184 41.7709L27.5386 44.3311V44.2671ZM28.0187 44.7792L30.899 47.4355H49.1408L42.1641 43.179" fill="#1E1E1E"/>
<path d="M20.0819 32.81C15.6015 34.6342 16.8816 38.5066 18.4817 39.8507L23.4422 44.8432C25.1064 46.4433 25.2664 47.4034 25.2664 47.4034H29.6189L20.3699 38.8906C18.7698 37.1304 19.5378 35.7543 20.914 35.1782C20.914 35.1782 46.0045 26.4093 62.0381 20.6808C65.2384 19.5927 66.0385 17.4804 67.6387 13C67.6387 13 63.1582 15.3042 55.7335 18.4405C53.0452 19.6247 32.5311 27.8495 20.1139 32.842L20.0819 32.81Z" fill="#1E1E1E"/>
</g>
<defs>
<filter id="filter0_d_4071_18" x="0.5" y="0.5" width="257" height="68.1446" filterUnits="userSpaceOnUse" color-interpolation-filters="sRGB">
<feFlood flood-opacity="0" result="BackgroundImageFix"/>
<feColorMatrix in="SourceAlpha" type="matrix" values="0 0 0 0 0 0 0 0 0 0 0 0 0 0 0 0 0 0 127 0" result="hardAlpha"/>
<feOffset dy="4"/>
<feGaussianBlur stdDeviation="8.25"/>
<feComposite in2="hardAlpha" operator="out"/>
<feColorMatrix type="matrix" values="0 0 0 0 1 0 0 0 0 1 0 0 0 0 1 0 0 0 1 0"/>
<feBlend mode="normal" in2="BackgroundImageFix" result="effect1_dropShadow_4071_18"/>
<feBlend mode="normal" in="SourceGraphic" in2="effect1_dropShadow_4071_18" result="shape"/>
</filter>
</defs>
</svg>
